G04*
G04 #@! TF.GenerationSoftware,Altium Limited,Altium Designer,25.2.1 (25)*
G04*
G04 Layer_Physical_Order=2*
G04 Layer_Color=32768*
%FSLAX44Y44*%
%MOMM*%
G71*
G04*
G04 #@! TF.SameCoordinates,9FA7296E-CC3D-4323-95AD-B8A560F7C429*
G04*
G04*
G04 #@! TF.FilePolarity,Negative*
G04*
G01*
G75*
%ADD35C,1.0160*%
%ADD36C,1.3906*%
%ADD37O,2.2000X1.0000*%
%ADD38O,1.8000X1.0000*%
%ADD39C,0.6000*%
D35*
X130000Y-0D02*
G03*
X150000Y20000I0J20000D01*
G01*
X150000Y180000D02*
G03*
X130000Y200000I-20000J0D01*
G01*
X20000Y200000D02*
G03*
X0Y180000I0J-20000D01*
G01*
Y20000D02*
G03*
X20000Y0I20000J0D01*
G01*
X20000D02*
X130000Y-0D01*
X150000Y180000D02*
X150000Y20000D01*
X20000Y200000D02*
X130000Y200000D01*
X0Y20000D02*
Y180000D01*
D36*
X19200Y180160D02*
D03*
Y159840D02*
D03*
X70000Y170000D02*
D03*
D37*
X130000Y56800D02*
D03*
Y143200D02*
D03*
D38*
X90000Y56800D02*
D03*
Y143200D02*
D03*
D39*
X95000Y124000D02*
D03*
Y76500D02*
D03*
X47500Y22500D02*
D03*
X67500Y47500D02*
D03*
X107500Y32500D02*
D03*
X87500Y192500D02*
D03*
X107500Y167500D02*
D03*
X127500Y177500D02*
D03*
X77500Y62500D02*
D03*
X97500Y87500D02*
D03*
X47000Y100000D02*
D03*
X87500Y7500D02*
D03*
X47000Y108000D02*
D03*
X52500Y104000D02*
D03*
Y96000D02*
D03*
X12500Y108000D02*
D03*
X7500Y104000D02*
D03*
X12500Y100000D02*
D03*
X27500Y96000D02*
D03*
X22500Y92000D02*
D03*
X27500Y88000D02*
D03*
X12500Y84000D02*
D03*
X7500Y80000D02*
D03*
X12500Y76000D02*
D03*
X62975Y157975D02*
D03*
X92500Y92500D02*
D03*
X77500Y102500D02*
D03*
M02*
