G04*
G04 #@! TF.GenerationSoftware,Altium Limited,Altium Designer,25.8.1 (18)*
G04*
G04 Layer_Color=32896*
%FSLAX44Y44*%
%MOMM*%
G71*
G04*
G04 #@! TF.SameCoordinates,1E3846C3-62AB-4AEE-BE3D-F3B3455204D7*
G04*
G04*
G04 #@! TF.FilePolarity,Positive*
G04*
G01*
G75*
G36*
X123905Y19639D02*
X123982Y19479D01*
X124065Y19326D01*
X124155Y19188D01*
X124252Y19049D01*
X124349Y18924D01*
X124446Y18806D01*
X124536Y18695D01*
X124633Y18598D01*
X124717Y18515D01*
X124793Y18439D01*
X124862Y18376D01*
X124918Y18328D01*
X124966Y18286D01*
X124994Y18266D01*
X125001Y18259D01*
X125160Y18141D01*
X125313Y18030D01*
X125459Y17933D01*
X125604Y17843D01*
X125736Y17759D01*
X125868Y17690D01*
X125985Y17628D01*
X126096Y17565D01*
X126201Y17517D01*
X126291Y17475D01*
X126367Y17447D01*
X126436Y17420D01*
X126492Y17399D01*
X126526Y17385D01*
X126554Y17371D01*
X126561D01*
Y15700D01*
X126312Y15790D01*
X126069Y15887D01*
X125833Y15998D01*
X125611Y16109D01*
X125403Y16220D01*
X125209Y16338D01*
X125029Y16456D01*
X124862Y16567D01*
X124710Y16671D01*
X124578Y16775D01*
X124460Y16865D01*
X124363Y16941D01*
X124287Y17004D01*
X124231Y17052D01*
X124197Y17080D01*
X124183Y17094D01*
Y10166D01*
X122345D01*
Y19798D01*
X123843D01*
X123905Y19639D01*
D02*
G37*
G36*
X101549D02*
X101626Y19479D01*
X101709Y19326D01*
X101799Y19188D01*
X101896Y19049D01*
X101993Y18924D01*
X102090Y18806D01*
X102180Y18695D01*
X102277Y18598D01*
X102361Y18515D01*
X102437Y18439D01*
X102506Y18376D01*
X102562Y18328D01*
X102610Y18286D01*
X102638Y18266D01*
X102645Y18259D01*
X102804Y18141D01*
X102957Y18030D01*
X103103Y17933D01*
X103248Y17843D01*
X103380Y17759D01*
X103512Y17690D01*
X103630Y17628D01*
X103741Y17565D01*
X103845Y17517D01*
X103935Y17475D01*
X104011Y17447D01*
X104080Y17420D01*
X104136Y17399D01*
X104171Y17385D01*
X104198Y17371D01*
X104205D01*
Y15700D01*
X103956Y15790D01*
X103713Y15887D01*
X103477Y15998D01*
X103255Y16109D01*
X103047Y16220D01*
X102853Y16338D01*
X102673Y16456D01*
X102506Y16567D01*
X102354Y16671D01*
X102222Y16775D01*
X102104Y16865D01*
X102007Y16941D01*
X101931Y17004D01*
X101875Y17052D01*
X101841Y17080D01*
X101827Y17094D01*
Y10166D01*
X99989D01*
Y19798D01*
X101487D01*
X101549Y19639D01*
D02*
G37*
G36*
X132199Y10166D02*
X130541D01*
X127781Y17121D01*
X129675D01*
X130992Y13571D01*
X131034Y13460D01*
X131068Y13356D01*
X131103Y13252D01*
X131131Y13162D01*
X131159Y13093D01*
X131179Y13030D01*
X131186Y12996D01*
X131193Y12982D01*
X131200Y12954D01*
X131214Y12912D01*
X131235Y12829D01*
X131269Y12732D01*
X131297Y12628D01*
X131332Y12538D01*
X131353Y12462D01*
X131367Y12427D01*
X131373Y12406D01*
X131380Y12392D01*
Y12385D01*
X131762Y13571D01*
X133072Y17121D01*
X135000D01*
X132199Y10166D01*
D02*
G37*
G36*
X119204D02*
X117366D01*
Y12004D01*
X119204D01*
Y10166D01*
D02*
G37*
G36*
X108026D02*
X106188D01*
Y12004D01*
X108026D01*
Y10166D01*
D02*
G37*
G36*
X113026Y19784D02*
X113261Y19756D01*
X113490Y19708D01*
X113698Y19646D01*
X113892Y19569D01*
X114073Y19486D01*
X114232Y19396D01*
X114378Y19306D01*
X114509Y19216D01*
X114627Y19125D01*
X114724Y19042D01*
X114801Y18966D01*
X114863Y18903D01*
X114912Y18855D01*
X114939Y18827D01*
X114946Y18813D01*
X115029Y18695D01*
X115113Y18571D01*
X115182Y18439D01*
X115258Y18300D01*
X115383Y18009D01*
X115487Y17704D01*
X115577Y17378D01*
X115654Y17052D01*
X115716Y16733D01*
X115765Y16414D01*
X115806Y16109D01*
X115834Y15832D01*
X115841Y15700D01*
X115855Y15575D01*
X115862Y15457D01*
X115869Y15353D01*
X115876Y15256D01*
Y15166D01*
Y15090D01*
X115882Y15027D01*
Y14979D01*
Y14937D01*
Y14916D01*
Y14909D01*
Y14653D01*
X115876Y14410D01*
X115862Y14174D01*
X115848Y13952D01*
X115827Y13737D01*
X115806Y13529D01*
X115778Y13335D01*
X115751Y13148D01*
X115716Y12968D01*
X115681Y12795D01*
X115647Y12635D01*
X115612Y12482D01*
X115577Y12337D01*
X115536Y12205D01*
X115494Y12073D01*
X115452Y11955D01*
X115418Y11845D01*
X115376Y11740D01*
X115335Y11650D01*
X115300Y11560D01*
X115265Y11484D01*
X115224Y11408D01*
X115196Y11345D01*
X115161Y11283D01*
X115133Y11234D01*
X115106Y11193D01*
X115085Y11158D01*
X115064Y11123D01*
X115036Y11089D01*
X115029Y11075D01*
X114863Y10888D01*
X114683Y10721D01*
X114502Y10575D01*
X114315Y10451D01*
X114121Y10347D01*
X113934Y10264D01*
X113754Y10194D01*
X113573Y10132D01*
X113414Y10090D01*
X113254Y10056D01*
X113123Y10035D01*
X112998Y10014D01*
X112901Y10007D01*
X112831Y10000D01*
X112769D01*
X112512Y10014D01*
X112277Y10042D01*
X112048Y10090D01*
X111840Y10152D01*
X111646Y10229D01*
X111465Y10312D01*
X111306Y10395D01*
X111160Y10492D01*
X111028Y10582D01*
X110911Y10666D01*
X110814Y10749D01*
X110737Y10825D01*
X110675Y10888D01*
X110626Y10936D01*
X110599Y10964D01*
X110592Y10978D01*
X110508Y11096D01*
X110425Y11220D01*
X110349Y11352D01*
X110280Y11491D01*
X110155Y11782D01*
X110044Y12094D01*
X109954Y12413D01*
X109877Y12739D01*
X109815Y13065D01*
X109767Y13384D01*
X109725Y13689D01*
X109697Y13973D01*
X109683Y14105D01*
X109676Y14230D01*
X109669Y14341D01*
X109662Y14452D01*
X109656Y14549D01*
Y14639D01*
X109649Y14715D01*
Y14778D01*
Y14826D01*
Y14868D01*
Y14889D01*
Y14895D01*
Y15145D01*
X109656Y15388D01*
X109669Y15624D01*
X109690Y15846D01*
X109711Y16061D01*
X109739Y16269D01*
X109767Y16463D01*
X109794Y16657D01*
X109829Y16837D01*
X109871Y17011D01*
X109905Y17170D01*
X109947Y17329D01*
X109988Y17475D01*
X110030Y17614D01*
X110078Y17745D01*
X110120Y17870D01*
X110162Y17988D01*
X110210Y18092D01*
X110252Y18189D01*
X110294Y18286D01*
X110335Y18370D01*
X110370Y18446D01*
X110411Y18515D01*
X110446Y18571D01*
X110474Y18626D01*
X110501Y18675D01*
X110529Y18709D01*
X110550Y18744D01*
X110571Y18772D01*
X110578Y18786D01*
X110592Y18800D01*
X110744Y18973D01*
X110911Y19132D01*
X111084Y19264D01*
X111264Y19375D01*
X111445Y19472D01*
X111625Y19555D01*
X111805Y19618D01*
X111972Y19673D01*
X112138Y19715D01*
X112284Y19742D01*
X112422Y19770D01*
X112540Y19784D01*
X112637Y19791D01*
X112707Y19798D01*
X112769D01*
X113026Y19784D01*
D02*
G37*
G36*
X115716Y35720D02*
X113878D01*
Y37419D01*
X115716D01*
Y35720D01*
D02*
G37*
G36*
X99337D02*
X97500D01*
Y37419D01*
X99337D01*
Y35720D01*
D02*
G37*
G36*
X93326Y34923D02*
X93547Y34888D01*
X93755Y34847D01*
X93956Y34784D01*
X94137Y34715D01*
X94310Y34639D01*
X94470Y34555D01*
X94615Y34465D01*
X94747Y34382D01*
X94858Y34292D01*
X94955Y34216D01*
X95038Y34146D01*
X95108Y34084D01*
X95149Y34042D01*
X95184Y34014D01*
X95191Y34001D01*
X95336Y33820D01*
X95468Y33619D01*
X95579Y33411D01*
X95676Y33196D01*
X95759Y32974D01*
X95822Y32752D01*
X95877Y32531D01*
X95926Y32322D01*
X95961Y32121D01*
X95988Y31934D01*
X96002Y31768D01*
X96016Y31615D01*
X96023Y31553D01*
Y31497D01*
X96030Y31449D01*
Y31407D01*
Y31372D01*
Y31352D01*
Y31338D01*
Y31331D01*
X96023Y31074D01*
X96002Y30832D01*
X95967Y30596D01*
X95933Y30381D01*
X95884Y30173D01*
X95829Y29979D01*
X95773Y29805D01*
X95711Y29646D01*
X95648Y29500D01*
X95593Y29369D01*
X95538Y29258D01*
X95489Y29167D01*
X95447Y29098D01*
X95420Y29043D01*
X95399Y29015D01*
X95392Y29001D01*
X95232Y28793D01*
X95059Y28613D01*
X94886Y28453D01*
X94698Y28321D01*
X94511Y28204D01*
X94331Y28114D01*
X94151Y28030D01*
X93977Y27968D01*
X93811Y27919D01*
X93658Y27885D01*
X93520Y27857D01*
X93402Y27843D01*
X93305Y27829D01*
X93235Y27822D01*
X93173D01*
X92944Y27836D01*
X92722Y27871D01*
X92514Y27926D01*
X92313Y28003D01*
X92126Y28086D01*
X91952Y28183D01*
X91800Y28280D01*
X91654Y28391D01*
X91523Y28495D01*
X91412Y28592D01*
X91308Y28689D01*
X91231Y28779D01*
X91162Y28849D01*
X91114Y28904D01*
X91086Y28939D01*
X91079Y28953D01*
X91086Y27933D01*
Y27822D01*
X91093Y27725D01*
Y27628D01*
X91100Y27545D01*
X91107Y27469D01*
X91114Y27399D01*
X91120Y27337D01*
X91127Y27288D01*
X91141Y27240D01*
X91148Y27198D01*
X91162Y27143D01*
X91169Y27108D01*
X91176Y27094D01*
X91224Y26983D01*
X91287Y26886D01*
X91349Y26810D01*
X91405Y26741D01*
X91460Y26692D01*
X91502Y26657D01*
X91530Y26637D01*
X91543Y26630D01*
X91613Y26588D01*
X91696Y26553D01*
X91862Y26505D01*
X92043Y26463D01*
X92216Y26435D01*
X92299Y26428D01*
X92375Y26421D01*
X92445Y26415D01*
X92507D01*
X92556Y26408D01*
X92729D01*
X92826Y26415D01*
X92909Y26428D01*
X92993Y26442D01*
X93069Y26456D01*
X93138Y26470D01*
X93249Y26512D01*
X93339Y26546D01*
X93402Y26581D01*
X93436Y26602D01*
X93450Y26609D01*
X93520Y26671D01*
X93568Y26747D01*
X93610Y26831D01*
X93644Y26914D01*
X93665Y26990D01*
X93679Y27053D01*
X93693Y27101D01*
Y27108D01*
Y27115D01*
X95794Y27371D01*
X95801Y27281D01*
Y27212D01*
Y27184D01*
Y27170D01*
Y27157D01*
Y27150D01*
X95794Y26976D01*
X95766Y26817D01*
X95732Y26664D01*
X95683Y26519D01*
X95628Y26380D01*
X95565Y26255D01*
X95503Y26137D01*
X95434Y26033D01*
X95364Y25936D01*
X95302Y25853D01*
X95239Y25784D01*
X95184Y25721D01*
X95135Y25673D01*
X95101Y25638D01*
X95073Y25617D01*
X95066Y25610D01*
X94913Y25506D01*
X94747Y25409D01*
X94560Y25326D01*
X94359Y25257D01*
X94158Y25201D01*
X93943Y25153D01*
X93735Y25111D01*
X93533Y25076D01*
X93339Y25048D01*
X93152Y25035D01*
X92986Y25021D01*
X92840Y25007D01*
X92722D01*
X92674Y25000D01*
X92382D01*
X92223Y25007D01*
X92063Y25021D01*
X91918Y25035D01*
X91779Y25048D01*
X91654Y25062D01*
X91536Y25083D01*
X91432Y25104D01*
X91335Y25118D01*
X91252Y25139D01*
X91176Y25153D01*
X91120Y25173D01*
X91072Y25180D01*
X91037Y25194D01*
X91016Y25201D01*
X91009D01*
X90788Y25277D01*
X90593Y25368D01*
X90427Y25458D01*
X90351Y25499D01*
X90288Y25548D01*
X90226Y25582D01*
X90170Y25624D01*
X90129Y25659D01*
X90094Y25687D01*
X90059Y25707D01*
X90039Y25728D01*
X90032Y25735D01*
X90025Y25742D01*
X89893Y25881D01*
X89782Y26040D01*
X89685Y26200D01*
X89602Y26352D01*
X89539Y26491D01*
X89512Y26546D01*
X89491Y26602D01*
X89477Y26643D01*
X89463Y26671D01*
X89456Y26692D01*
Y26699D01*
X89422Y26817D01*
X89387Y26955D01*
X89359Y27094D01*
X89338Y27240D01*
X89297Y27545D01*
X89283Y27697D01*
X89276Y27843D01*
X89262Y27982D01*
Y28114D01*
X89255Y28231D01*
X89248Y28328D01*
Y28412D01*
Y28474D01*
Y28516D01*
Y28530D01*
Y34777D01*
X90968D01*
Y33793D01*
X91127Y33994D01*
X91301Y34167D01*
X91474Y34320D01*
X91654Y34451D01*
X91835Y34562D01*
X92008Y34652D01*
X92181Y34729D01*
X92348Y34791D01*
X92500Y34833D01*
X92646Y34867D01*
X92771Y34895D01*
X92882Y34909D01*
X92972Y34923D01*
X93041Y34930D01*
X93097D01*
X93326Y34923D01*
D02*
G37*
G36*
X124848Y27822D02*
X123066D01*
X121887Y32295D01*
X120688Y27822D01*
X118926D01*
X116687Y34777D01*
X118504D01*
X119835Y30215D01*
X120993Y34777D01*
X122761D01*
X123961Y30215D01*
X125264Y34777D01*
X127046D01*
X124848Y27822D01*
D02*
G37*
G36*
X83701Y32295D02*
Y32004D01*
X83694Y31726D01*
X83680Y31470D01*
X83673Y31234D01*
X83659Y31019D01*
X83638Y30818D01*
X83624Y30638D01*
X83604Y30478D01*
X83590Y30332D01*
X83576Y30208D01*
X83555Y30104D01*
X83541Y30013D01*
X83527Y29951D01*
X83520Y29903D01*
X83514Y29868D01*
Y29861D01*
X83451Y29653D01*
X83375Y29459D01*
X83285Y29278D01*
X83195Y29119D01*
X83153Y29050D01*
X83111Y28980D01*
X83070Y28925D01*
X83035Y28883D01*
X83014Y28842D01*
X82993Y28814D01*
X82980Y28800D01*
X82973Y28793D01*
X82806Y28613D01*
X82619Y28453D01*
X82432Y28308D01*
X82252Y28190D01*
X82168Y28141D01*
X82092Y28093D01*
X82023Y28058D01*
X81967Y28023D01*
X81919Y28003D01*
X81877Y27982D01*
X81856Y27975D01*
X81849Y27968D01*
X81711Y27912D01*
X81558Y27864D01*
X81392Y27822D01*
X81225Y27787D01*
X80879Y27732D01*
X80705Y27711D01*
X80539Y27697D01*
X80379Y27683D01*
X80234Y27670D01*
X80102Y27663D01*
X79991D01*
X79894Y27656D01*
X79762D01*
X79554Y27663D01*
X79353Y27670D01*
X79173Y27683D01*
X78993Y27704D01*
X78833Y27725D01*
X78680Y27746D01*
X78542Y27774D01*
X78410Y27801D01*
X78299Y27829D01*
X78202Y27857D01*
X78119Y27878D01*
X78042Y27898D01*
X77987Y27919D01*
X77952Y27933D01*
X77925Y27947D01*
X77918D01*
X77786Y28003D01*
X77668Y28065D01*
X77550Y28127D01*
X77446Y28190D01*
X77342Y28259D01*
X77252Y28321D01*
X77169Y28384D01*
X77092Y28446D01*
X77023Y28502D01*
X76961Y28557D01*
X76912Y28606D01*
X76871Y28640D01*
X76836Y28675D01*
X76815Y28703D01*
X76801Y28717D01*
X76794Y28724D01*
X76649Y28918D01*
X76524Y29119D01*
X76427Y29320D01*
X76344Y29514D01*
X76309Y29597D01*
X76281Y29681D01*
X76260Y29750D01*
X76247Y29812D01*
X76226Y29861D01*
X76219Y29896D01*
X76212Y29923D01*
Y29930D01*
X76184Y30076D01*
X76156Y30242D01*
X76136Y30422D01*
X76122Y30610D01*
X76101Y30811D01*
X76094Y31019D01*
X76080Y31220D01*
X76073Y31421D01*
X76066Y31608D01*
X76059Y31789D01*
Y31948D01*
X76052Y32094D01*
Y32149D01*
Y32205D01*
Y32253D01*
Y32295D01*
Y32329D01*
Y32350D01*
Y32364D01*
Y32371D01*
Y37419D01*
X77987D01*
Y32108D01*
Y31899D01*
X77994Y31712D01*
Y31532D01*
X78001Y31372D01*
X78008Y31220D01*
X78015Y31088D01*
X78022Y30970D01*
X78029Y30859D01*
X78042Y30769D01*
X78049Y30686D01*
X78056Y30624D01*
X78063Y30568D01*
X78070Y30527D01*
Y30492D01*
X78077Y30478D01*
Y30471D01*
X78098Y30381D01*
X78126Y30298D01*
X78188Y30138D01*
X78271Y30000D01*
X78362Y29875D01*
X78445Y29778D01*
X78514Y29708D01*
X78542Y29681D01*
X78563Y29660D01*
X78576Y29653D01*
X78583Y29646D01*
X78667Y29590D01*
X78757Y29535D01*
X78951Y29452D01*
X79159Y29396D01*
X79360Y29355D01*
X79457Y29341D01*
X79540Y29334D01*
X79623Y29320D01*
X79686D01*
X79748Y29313D01*
X79825D01*
X79970Y29320D01*
X80116Y29327D01*
X80241Y29348D01*
X80365Y29369D01*
X80483Y29396D01*
X80587Y29424D01*
X80684Y29459D01*
X80768Y29493D01*
X80851Y29521D01*
X80913Y29556D01*
X80976Y29583D01*
X81024Y29611D01*
X81059Y29632D01*
X81087Y29653D01*
X81101Y29660D01*
X81107Y29667D01*
X81191Y29736D01*
X81267Y29812D01*
X81336Y29889D01*
X81399Y29965D01*
X81496Y30117D01*
X81579Y30270D01*
X81634Y30402D01*
X81655Y30464D01*
X81669Y30513D01*
X81683Y30554D01*
X81690Y30582D01*
X81697Y30603D01*
Y30610D01*
X81711Y30686D01*
X81718Y30783D01*
X81732Y30894D01*
X81738Y31019D01*
X81745Y31144D01*
X81752Y31282D01*
X81759Y31553D01*
Y31685D01*
Y31809D01*
X81766Y31920D01*
Y32017D01*
Y32101D01*
Y32163D01*
Y32205D01*
Y32218D01*
Y37419D01*
X83701D01*
Y32295D01*
D02*
G37*
G36*
X103720Y36157D02*
Y34777D01*
X104566D01*
Y33314D01*
X103720D01*
Y30277D01*
Y30104D01*
Y29944D01*
X103713Y29792D01*
Y29660D01*
X103706Y29542D01*
X103699Y29438D01*
Y29341D01*
X103692Y29265D01*
X103685Y29195D01*
X103678Y29133D01*
Y29084D01*
X103671Y29043D01*
Y29015D01*
X103664Y28994D01*
Y28987D01*
Y28980D01*
X103637Y28821D01*
X103595Y28675D01*
X103553Y28550D01*
X103512Y28446D01*
X103470Y28370D01*
X103435Y28308D01*
X103415Y28273D01*
X103408Y28259D01*
X103331Y28162D01*
X103234Y28079D01*
X103144Y28009D01*
X103047Y27947D01*
X102957Y27898D01*
X102888Y27857D01*
X102860Y27843D01*
X102839Y27836D01*
X102832Y27829D01*
X102825D01*
X102673Y27774D01*
X102513Y27732D01*
X102368Y27704D01*
X102229Y27683D01*
X102104Y27670D01*
X102056D01*
X102014Y27663D01*
X101931D01*
X101633Y27677D01*
X101362Y27704D01*
X101230Y27725D01*
X101113Y27746D01*
X101002Y27774D01*
X100898Y27801D01*
X100808Y27822D01*
X100724Y27850D01*
X100648Y27871D01*
X100586Y27892D01*
X100537Y27905D01*
X100502Y27919D01*
X100482Y27933D01*
X100475D01*
X100634Y29362D01*
X100808Y29306D01*
X100953Y29265D01*
X101085Y29230D01*
X101189Y29209D01*
X101272Y29195D01*
X101327Y29188D01*
X101376D01*
X101439Y29195D01*
X101501Y29202D01*
X101556Y29216D01*
X101598Y29237D01*
X101640Y29251D01*
X101667Y29265D01*
X101681Y29272D01*
X101688Y29278D01*
X101730Y29313D01*
X101764Y29355D01*
X101792Y29389D01*
X101813Y29424D01*
X101827Y29459D01*
X101841Y29486D01*
X101848Y29500D01*
Y29507D01*
X101854Y29542D01*
X101861Y29590D01*
Y29653D01*
X101868Y29722D01*
Y29805D01*
X101875Y29889D01*
Y30062D01*
X101882Y30228D01*
Y30305D01*
Y30367D01*
Y30429D01*
Y30471D01*
Y30499D01*
Y30506D01*
Y33314D01*
X100627D01*
Y34777D01*
X101882D01*
Y37239D01*
X103720Y36157D01*
D02*
G37*
G36*
X135000Y35797D02*
X132150D01*
Y27822D01*
X130215D01*
Y35797D01*
X127372D01*
Y37419D01*
X135000D01*
Y35797D01*
D02*
G37*
G36*
X115716Y27822D02*
X113878D01*
Y34777D01*
X115716D01*
Y27822D01*
D02*
G37*
G36*
X108269Y34916D02*
X108511Y34881D01*
X108740Y34819D01*
X108955Y34743D01*
X109156Y34659D01*
X109350Y34555D01*
X109524Y34451D01*
X109676Y34340D01*
X109822Y34229D01*
X109947Y34125D01*
X110051Y34021D01*
X110141Y33938D01*
X110217Y33862D01*
X110266Y33800D01*
X110294Y33765D01*
X110307Y33751D01*
Y34777D01*
X112013D01*
Y27822D01*
X110176D01*
Y30963D01*
Y31171D01*
X110169Y31366D01*
X110162Y31546D01*
X110155Y31705D01*
X110141Y31851D01*
X110134Y31983D01*
X110120Y32094D01*
X110106Y32198D01*
X110092Y32288D01*
X110078Y32364D01*
X110072Y32427D01*
X110058Y32475D01*
X110051Y32510D01*
X110044Y32538D01*
X110037Y32551D01*
Y32558D01*
X109974Y32711D01*
X109898Y32850D01*
X109808Y32974D01*
X109725Y33071D01*
X109642Y33155D01*
X109579Y33210D01*
X109551Y33231D01*
X109531Y33245D01*
X109524Y33259D01*
X109517D01*
X109371Y33349D01*
X109219Y33411D01*
X109073Y33460D01*
X108941Y33488D01*
X108823Y33508D01*
X108775Y33515D01*
X108733D01*
X108699Y33522D01*
X108650D01*
X108518Y33515D01*
X108393Y33494D01*
X108282Y33460D01*
X108192Y33432D01*
X108116Y33397D01*
X108061Y33363D01*
X108026Y33342D01*
X108012Y33335D01*
X107922Y33259D01*
X107839Y33182D01*
X107776Y33092D01*
X107721Y33009D01*
X107679Y32940D01*
X107652Y32877D01*
X107638Y32836D01*
X107631Y32829D01*
Y32822D01*
X107610Y32752D01*
X107589Y32662D01*
X107575Y32565D01*
X107561Y32454D01*
X107548Y32336D01*
X107534Y32212D01*
X107520Y31969D01*
X107513Y31851D01*
Y31740D01*
Y31636D01*
X107506Y31546D01*
Y31470D01*
Y31414D01*
Y31379D01*
Y31366D01*
Y27822D01*
X105668D01*
Y32135D01*
Y32281D01*
X105675Y32420D01*
Y32551D01*
X105682Y32669D01*
X105689Y32780D01*
X105703Y32884D01*
X105710Y32974D01*
X105717Y33057D01*
X105731Y33134D01*
X105738Y33196D01*
X105745Y33252D01*
X105758Y33300D01*
X105765Y33335D01*
Y33356D01*
X105772Y33370D01*
Y33377D01*
X105821Y33536D01*
X105876Y33682D01*
X105932Y33806D01*
X105994Y33924D01*
X106050Y34014D01*
X106098Y34084D01*
X106112Y34111D01*
X106126Y34132D01*
X106140Y34139D01*
Y34146D01*
X106244Y34271D01*
X106369Y34375D01*
X106494Y34472D01*
X106618Y34555D01*
X106729Y34618D01*
X106778Y34646D01*
X106819Y34666D01*
X106854Y34687D01*
X106882Y34701D01*
X106896Y34708D01*
X106903D01*
X107097Y34784D01*
X107284Y34840D01*
X107471Y34874D01*
X107645Y34902D01*
X107721Y34909D01*
X107790Y34916D01*
X107853Y34923D01*
X107908Y34930D01*
X108012D01*
X108269Y34916D01*
D02*
G37*
G36*
X99337Y27822D02*
X97500D01*
Y34777D01*
X99337D01*
Y27822D01*
D02*
G37*
G36*
X65062D02*
X61317Y27822D01*
X61172Y27829D01*
X60894D01*
X60769Y27836D01*
X60651D01*
X60437Y27843D01*
X60249D01*
X60083Y27850D01*
X59937Y27857D01*
X59812Y27864D01*
X59715D01*
X59632Y27871D01*
X59570Y27878D01*
X59521D01*
X59487Y27885D01*
X59466D01*
X59188Y27926D01*
X59057Y27954D01*
X58932Y27989D01*
X58821Y28023D01*
X58710Y28065D01*
X58613Y28100D01*
X58523Y28141D01*
X58439Y28176D01*
X58370Y28217D01*
X58308Y28245D01*
X58259Y28280D01*
X58218Y28301D01*
X58183Y28321D01*
X58169Y28328D01*
X58162Y28335D01*
X57975Y28488D01*
X57808Y28647D01*
X57670Y28814D01*
X57545Y28973D01*
X57455Y29112D01*
X57413Y29174D01*
X57386Y29223D01*
X57365Y29265D01*
X57344Y29299D01*
X57330Y29320D01*
Y29327D01*
X57275Y29445D01*
X57226Y29563D01*
X57157Y29792D01*
X57101Y30006D01*
X57080Y30103D01*
X57060Y30201D01*
X57053Y30284D01*
X57039Y30367D01*
X57032Y30429D01*
Y30492D01*
X57025Y30540D01*
Y30575D01*
Y30596D01*
Y30603D01*
X57032Y30755D01*
X57046Y30901D01*
X57066Y31047D01*
X57101Y31178D01*
X57136Y31310D01*
X57171Y31428D01*
X57219Y31539D01*
X57261Y31643D01*
X57302Y31733D01*
X57344Y31816D01*
X57386Y31886D01*
X57420Y31941D01*
X57455Y31990D01*
X57476Y32024D01*
X57490Y32045D01*
X57497Y32052D01*
X57587Y32163D01*
X57691Y32267D01*
X57795Y32364D01*
X57906Y32447D01*
X58017Y32524D01*
X58127Y32600D01*
X58238Y32662D01*
X58342Y32718D01*
X58446Y32766D01*
X58544Y32808D01*
X58627Y32843D01*
X58696Y32870D01*
X58759Y32891D01*
X58800Y32905D01*
X58835Y32919D01*
X58842D01*
X58620Y33037D01*
X58426Y33168D01*
X58259Y33314D01*
X58190Y33383D01*
X58120Y33446D01*
X58065Y33515D01*
X58010Y33571D01*
X57968Y33626D01*
X57926Y33675D01*
X57899Y33709D01*
X57878Y33737D01*
X57871Y33758D01*
X57864Y33765D01*
X57802Y33869D01*
X57739Y33980D01*
X57691Y34091D01*
X57649Y34195D01*
X57587Y34403D01*
X57545Y34590D01*
X57524Y34680D01*
X57517Y34756D01*
X57510Y34826D01*
X57503Y34888D01*
X57497Y34937D01*
Y34971D01*
Y34992D01*
Y34999D01*
Y35117D01*
X57510Y35228D01*
X57545Y35436D01*
X57593Y35630D01*
X57614Y35713D01*
X57642Y35796D01*
X57670Y35866D01*
X57698Y35935D01*
X57725Y35991D01*
X57746Y36032D01*
X57767Y36074D01*
X57781Y36102D01*
X57788Y36116D01*
X57795Y36122D01*
X57913Y36303D01*
X58030Y36455D01*
X58155Y36594D01*
X58273Y36712D01*
X58377Y36802D01*
X58453Y36864D01*
X58488Y36892D01*
X58509Y36906D01*
X58523Y36920D01*
X58530D01*
X58703Y37024D01*
X58876Y37114D01*
X59043Y37183D01*
X59195Y37239D01*
X59272Y37260D01*
X59334Y37273D01*
X59390Y37287D01*
X59438Y37301D01*
X59480Y37308D01*
X59507Y37315D01*
X59528Y37322D01*
X59535D01*
X59646Y37336D01*
X59764Y37357D01*
X59896Y37371D01*
X60034Y37378D01*
X60312Y37398D01*
X60589Y37405D01*
X60721Y37412D01*
X60839D01*
X60943Y37419D01*
X65062Y37419D01*
Y27822D01*
D02*
G37*
G36*
X70859Y37572D02*
X71053Y37565D01*
X71240Y37551D01*
X71420Y37523D01*
X71587Y37502D01*
X71739Y37475D01*
X71885Y37440D01*
X72017Y37412D01*
X72135Y37378D01*
X72239Y37350D01*
X72329Y37315D01*
X72405Y37294D01*
X72460Y37273D01*
X72509Y37253D01*
X72537Y37246D01*
X72544Y37239D01*
X72689Y37176D01*
X72821Y37100D01*
X72946Y37024D01*
X73064Y36948D01*
X73168Y36864D01*
X73265Y36788D01*
X73355Y36705D01*
X73438Y36629D01*
X73507Y36552D01*
X73570Y36490D01*
X73625Y36428D01*
X73667Y36372D01*
X73702Y36330D01*
X73723Y36296D01*
X73736Y36275D01*
X73743Y36268D01*
X73813Y36150D01*
X73875Y36025D01*
X73931Y35907D01*
X73979Y35783D01*
X74021Y35665D01*
X74055Y35554D01*
X74076Y35443D01*
X74104Y35346D01*
X74118Y35249D01*
X74132Y35159D01*
X74138Y35082D01*
X74145Y35020D01*
X74152Y34964D01*
Y34930D01*
Y34902D01*
Y34895D01*
X74145Y34687D01*
X74118Y34486D01*
X74069Y34292D01*
X74014Y34111D01*
X73951Y33945D01*
X73875Y33786D01*
X73792Y33640D01*
X73709Y33508D01*
X73632Y33383D01*
X73549Y33279D01*
X73473Y33182D01*
X73410Y33106D01*
X73355Y33051D01*
X73306Y33002D01*
X73279Y32974D01*
X73272Y32967D01*
X73140Y32863D01*
X72994Y32766D01*
X72835Y32669D01*
X72662Y32579D01*
X72488Y32496D01*
X72301Y32420D01*
X72121Y32350D01*
X71940Y32281D01*
X71774Y32225D01*
X71614Y32170D01*
X71469Y32121D01*
X71337Y32087D01*
X71233Y32059D01*
X71192Y32045D01*
X71157Y32038D01*
X71129Y32024D01*
X71108D01*
X71094Y32017D01*
X71087D01*
X70873Y31962D01*
X70671Y31913D01*
X70491Y31872D01*
X70332Y31830D01*
X70186Y31789D01*
X70061Y31754D01*
X69950Y31726D01*
X69853Y31698D01*
X69777Y31678D01*
X69708Y31657D01*
X69652Y31636D01*
X69604Y31622D01*
X69576Y31615D01*
X69548Y31608D01*
X69541Y31601D01*
X69534D01*
X69444Y31567D01*
X69361Y31532D01*
X69215Y31463D01*
X69090Y31386D01*
X68993Y31324D01*
X68924Y31262D01*
X68875Y31220D01*
X68841Y31192D01*
X68834Y31178D01*
X68765Y31088D01*
X68716Y30991D01*
X68681Y30894D01*
X68660Y30804D01*
X68640Y30721D01*
X68633Y30658D01*
Y30617D01*
Y30610D01*
Y30603D01*
X68640Y30506D01*
X68654Y30409D01*
X68674Y30326D01*
X68709Y30235D01*
X68785Y30083D01*
X68868Y29944D01*
X68917Y29889D01*
X68959Y29833D01*
X69000Y29792D01*
X69035Y29750D01*
X69070Y29722D01*
X69090Y29701D01*
X69104Y29688D01*
X69111Y29681D01*
X69201Y29611D01*
X69305Y29549D01*
X69416Y29500D01*
X69527Y29452D01*
X69645Y29417D01*
X69763Y29382D01*
X69992Y29334D01*
X70096Y29320D01*
X70200Y29306D01*
X70290Y29299D01*
X70366Y29292D01*
X70429Y29285D01*
X70519D01*
X70678Y29292D01*
X70831Y29306D01*
X70977Y29327D01*
X71115Y29355D01*
X71240Y29389D01*
X71351Y29424D01*
X71462Y29466D01*
X71552Y29507D01*
X71642Y29549D01*
X71712Y29590D01*
X71781Y29625D01*
X71829Y29660D01*
X71871Y29688D01*
X71899Y29708D01*
X71920Y29722D01*
X71926Y29729D01*
X72017Y29819D01*
X72107Y29916D01*
X72183Y30020D01*
X72252Y30131D01*
X72315Y30249D01*
X72370Y30367D01*
X72467Y30596D01*
X72502Y30700D01*
X72530Y30797D01*
X72558Y30887D01*
X72578Y30970D01*
X72592Y31033D01*
X72606Y31081D01*
X72613Y31109D01*
Y31123D01*
X74499Y30943D01*
X74458Y30651D01*
X74395Y30374D01*
X74326Y30117D01*
X74236Y29875D01*
X74145Y29660D01*
X74048Y29459D01*
X73951Y29272D01*
X73847Y29112D01*
X73750Y28966D01*
X73660Y28842D01*
X73570Y28731D01*
X73494Y28647D01*
X73431Y28578D01*
X73383Y28530D01*
X73355Y28495D01*
X73341Y28488D01*
X73147Y28342D01*
X72939Y28210D01*
X72717Y28100D01*
X72488Y28003D01*
X72259Y27919D01*
X72024Y27857D01*
X71795Y27801D01*
X71573Y27753D01*
X71365Y27718D01*
X71171Y27690D01*
X70990Y27677D01*
X70838Y27663D01*
X70775Y27656D01*
X70713D01*
X70665Y27649D01*
X70540D01*
X70311Y27656D01*
X70089Y27663D01*
X69881Y27683D01*
X69687Y27704D01*
X69507Y27732D01*
X69333Y27760D01*
X69174Y27787D01*
X69028Y27822D01*
X68903Y27857D01*
X68785Y27885D01*
X68688Y27912D01*
X68612Y27940D01*
X68543Y27961D01*
X68494Y27982D01*
X68466Y27989D01*
X68459Y27996D01*
X68307Y28065D01*
X68161Y28141D01*
X68029Y28224D01*
X67905Y28314D01*
X67787Y28398D01*
X67683Y28488D01*
X67586Y28578D01*
X67496Y28661D01*
X67419Y28744D01*
X67350Y28821D01*
X67295Y28890D01*
X67246Y28946D01*
X67211Y28994D01*
X67183Y29036D01*
X67170Y29056D01*
X67163Y29063D01*
X67080Y29202D01*
X67010Y29334D01*
X66948Y29473D01*
X66892Y29611D01*
X66851Y29743D01*
X66809Y29868D01*
X66781Y29993D01*
X66754Y30110D01*
X66740Y30215D01*
X66726Y30312D01*
X66712Y30395D01*
X66705Y30471D01*
X66698Y30527D01*
Y30575D01*
Y30603D01*
Y30610D01*
X66705Y30776D01*
X66712Y30936D01*
X66733Y31088D01*
X66761Y31234D01*
X66788Y31366D01*
X66823Y31490D01*
X66858Y31608D01*
X66892Y31712D01*
X66927Y31809D01*
X66962Y31893D01*
X66996Y31962D01*
X67024Y32024D01*
X67052Y32073D01*
X67073Y32108D01*
X67080Y32128D01*
X67087Y32135D01*
X67163Y32246D01*
X67239Y32357D01*
X67412Y32551D01*
X67502Y32641D01*
X67593Y32718D01*
X67676Y32794D01*
X67759Y32856D01*
X67842Y32919D01*
X67912Y32967D01*
X67981Y33009D01*
X68036Y33051D01*
X68085Y33078D01*
X68120Y33099D01*
X68141Y33106D01*
X68147Y33113D01*
X68279Y33182D01*
X68432Y33245D01*
X68591Y33314D01*
X68758Y33377D01*
X69104Y33494D01*
X69278Y33543D01*
X69444Y33598D01*
X69604Y33640D01*
X69749Y33682D01*
X69888Y33716D01*
X70006Y33751D01*
X70103Y33772D01*
X70172Y33793D01*
X70200Y33800D01*
X70221D01*
X70228Y33806D01*
X70235D01*
X70484Y33869D01*
X70720Y33931D01*
X70921Y33987D01*
X71108Y34049D01*
X71275Y34105D01*
X71420Y34160D01*
X71545Y34209D01*
X71656Y34257D01*
X71746Y34299D01*
X71823Y34333D01*
X71885Y34368D01*
X71933Y34396D01*
X71975Y34424D01*
X71996Y34437D01*
X72010Y34451D01*
X72017D01*
X72114Y34548D01*
X72183Y34646D01*
X72232Y34743D01*
X72266Y34833D01*
X72287Y34916D01*
X72294Y34978D01*
X72301Y35020D01*
Y35027D01*
Y35034D01*
X72294Y35103D01*
X72287Y35166D01*
X72252Y35283D01*
X72204Y35380D01*
X72148Y35464D01*
X72093Y35533D01*
X72044Y35582D01*
X72010Y35616D01*
X71996Y35623D01*
X71899Y35686D01*
X71802Y35741D01*
X71698Y35790D01*
X71587Y35831D01*
X71365Y35894D01*
X71157Y35935D01*
X71053Y35949D01*
X70963Y35956D01*
X70880Y35963D01*
X70810Y35970D01*
X70755Y35977D01*
X70526D01*
X70380Y35963D01*
X70255Y35949D01*
X70138Y35928D01*
X70027Y35901D01*
X69922Y35873D01*
X69832Y35845D01*
X69749Y35817D01*
X69680Y35783D01*
X69617Y35755D01*
X69562Y35727D01*
X69520Y35700D01*
X69486Y35679D01*
X69465Y35665D01*
X69451Y35658D01*
X69444Y35651D01*
X69368Y35589D01*
X69305Y35512D01*
X69187Y35346D01*
X69097Y35173D01*
X69021Y34999D01*
X68993Y34916D01*
X68973Y34840D01*
X68952Y34770D01*
X68938Y34708D01*
X68924Y34659D01*
X68917Y34625D01*
X68910Y34597D01*
Y34590D01*
X66975Y34673D01*
X66996Y34916D01*
X67031Y35145D01*
X67080Y35360D01*
X67149Y35561D01*
X67218Y35748D01*
X67301Y35921D01*
X67385Y36081D01*
X67475Y36219D01*
X67565Y36351D01*
X67648Y36462D01*
X67724Y36559D01*
X67794Y36636D01*
X67856Y36698D01*
X67898Y36746D01*
X67926Y36774D01*
X67939Y36781D01*
X68120Y36920D01*
X68314Y37045D01*
X68529Y37149D01*
X68744Y37246D01*
X68973Y37322D01*
X69201Y37385D01*
X69423Y37440D01*
X69638Y37482D01*
X69846Y37509D01*
X70033Y37537D01*
X70207Y37558D01*
X70359Y37565D01*
X70429Y37572D01*
X70484D01*
X70533Y37579D01*
X70658D01*
X70859Y37572D01*
D02*
G37*
%LPC*%
G36*
X112824Y18273D02*
X112769D01*
X112651Y18266D01*
X112533Y18238D01*
X112436Y18203D01*
X112346Y18168D01*
X112277Y18127D01*
X112221Y18092D01*
X112193Y18065D01*
X112180Y18058D01*
X112131Y18016D01*
X112083Y17960D01*
X111999Y17836D01*
X111923Y17697D01*
X111861Y17551D01*
X111812Y17420D01*
X111791Y17364D01*
X111770Y17316D01*
X111763Y17274D01*
X111750Y17239D01*
X111743Y17219D01*
Y17212D01*
X111715Y17080D01*
X111687Y16934D01*
X111659Y16761D01*
X111646Y16580D01*
X111625Y16393D01*
X111611Y16199D01*
X111597Y16005D01*
X111590Y15818D01*
X111583Y15631D01*
X111576Y15464D01*
Y15305D01*
X111569Y15166D01*
Y15055D01*
Y15007D01*
Y14972D01*
Y14937D01*
Y14916D01*
Y14902D01*
Y14895D01*
Y14590D01*
X111576Y14306D01*
X111590Y14043D01*
X111597Y13807D01*
X111611Y13592D01*
X111632Y13391D01*
X111646Y13217D01*
X111666Y13065D01*
X111687Y12926D01*
X111701Y12808D01*
X111715Y12711D01*
X111736Y12635D01*
X111743Y12573D01*
X111757Y12531D01*
X111763Y12503D01*
Y12496D01*
X111791Y12399D01*
X111826Y12309D01*
X111854Y12226D01*
X111888Y12150D01*
X111923Y12080D01*
X111958Y12018D01*
X112020Y11907D01*
X112083Y11831D01*
X112131Y11775D01*
X112159Y11747D01*
X112173Y11733D01*
X112277Y11664D01*
X112374Y11616D01*
X112478Y11574D01*
X112568Y11553D01*
X112651Y11539D01*
X112713Y11532D01*
X112755Y11525D01*
X112769D01*
X112887Y11532D01*
X113005Y11560D01*
X113102Y11595D01*
X113192Y11630D01*
X113261Y11671D01*
X113317Y11699D01*
X113351Y11727D01*
X113365Y11733D01*
X113414Y11775D01*
X113455Y11831D01*
X113539Y11955D01*
X113615Y12094D01*
X113677Y12233D01*
X113726Y12364D01*
X113747Y12420D01*
X113761Y12469D01*
X113774Y12510D01*
X113788Y12545D01*
X113795Y12566D01*
Y12573D01*
X113823Y12704D01*
X113851Y12857D01*
X113871Y13023D01*
X113892Y13204D01*
X113906Y13391D01*
X113920Y13585D01*
X113934Y13779D01*
X113941Y13973D01*
X113948Y14154D01*
X113955Y14327D01*
Y14486D01*
X113962Y14618D01*
Y14736D01*
Y14785D01*
Y14819D01*
Y14854D01*
Y14875D01*
Y14889D01*
Y14895D01*
Y15201D01*
X113955Y15485D01*
X113941Y15741D01*
X113934Y15984D01*
X113920Y16199D01*
X113899Y16393D01*
X113885Y16574D01*
X113865Y16726D01*
X113851Y16865D01*
X113837Y16983D01*
X113816Y17080D01*
X113802Y17156D01*
X113788Y17219D01*
X113781Y17260D01*
X113774Y17288D01*
Y17295D01*
X113747Y17392D01*
X113712Y17482D01*
X113684Y17572D01*
X113650Y17648D01*
X113615Y17718D01*
X113580Y17780D01*
X113518Y17884D01*
X113455Y17960D01*
X113407Y18016D01*
X113379Y18051D01*
X113365Y18058D01*
X113261Y18127D01*
X113157Y18182D01*
X113060Y18217D01*
X112970Y18245D01*
X112887Y18259D01*
X112824Y18273D01*
D02*
G37*
G36*
X92695Y33522D02*
X92632D01*
X92507Y33515D01*
X92389Y33501D01*
X92278Y33474D01*
X92168Y33439D01*
X92070Y33397D01*
X91980Y33356D01*
X91890Y33307D01*
X91814Y33259D01*
X91744Y33210D01*
X91682Y33162D01*
X91634Y33120D01*
X91585Y33078D01*
X91557Y33044D01*
X91530Y33016D01*
X91516Y33002D01*
X91509Y32995D01*
X91432Y32891D01*
X91363Y32773D01*
X91301Y32648D01*
X91245Y32524D01*
X91204Y32392D01*
X91169Y32260D01*
X91114Y31997D01*
X91093Y31872D01*
X91079Y31761D01*
X91072Y31657D01*
X91065Y31567D01*
X91058Y31497D01*
Y31442D01*
Y31407D01*
Y31393D01*
X91065Y31206D01*
X91079Y31033D01*
X91100Y30866D01*
X91127Y30714D01*
X91169Y30575D01*
X91204Y30443D01*
X91245Y30332D01*
X91287Y30228D01*
X91335Y30131D01*
X91377Y30055D01*
X91412Y29986D01*
X91446Y29930D01*
X91481Y29889D01*
X91502Y29861D01*
X91516Y29840D01*
X91523Y29833D01*
X91613Y29743D01*
X91703Y29660D01*
X91800Y29590D01*
X91897Y29528D01*
X91994Y29479D01*
X92084Y29438D01*
X92174Y29403D01*
X92264Y29376D01*
X92348Y29348D01*
X92424Y29334D01*
X92486Y29320D01*
X92549Y29313D01*
X92597D01*
X92632Y29306D01*
X92660D01*
X92778Y29313D01*
X92889Y29327D01*
X92993Y29355D01*
X93090Y29389D01*
X93270Y29466D01*
X93353Y29514D01*
X93429Y29563D01*
X93492Y29611D01*
X93554Y29660D01*
X93603Y29701D01*
X93644Y29736D01*
X93679Y29771D01*
X93700Y29799D01*
X93714Y29812D01*
X93721Y29819D01*
X93797Y29923D01*
X93859Y30034D01*
X93915Y30159D01*
X93963Y30291D01*
X94005Y30422D01*
X94040Y30554D01*
X94088Y30818D01*
X94109Y30943D01*
X94123Y31061D01*
X94130Y31165D01*
X94137Y31255D01*
X94144Y31331D01*
Y31386D01*
Y31421D01*
Y31435D01*
X94137Y31629D01*
X94123Y31802D01*
X94102Y31969D01*
X94074Y32121D01*
X94047Y32267D01*
X94012Y32392D01*
X93970Y32510D01*
X93929Y32614D01*
X93894Y32704D01*
X93853Y32787D01*
X93818Y32850D01*
X93783Y32905D01*
X93762Y32947D01*
X93742Y32981D01*
X93728Y32995D01*
X93721Y33002D01*
X93638Y33092D01*
X93547Y33175D01*
X93457Y33245D01*
X93367Y33300D01*
X93277Y33356D01*
X93187Y33397D01*
X93097Y33432D01*
X93013Y33460D01*
X92937Y33481D01*
X92861Y33494D01*
X92799Y33508D01*
X92743Y33515D01*
X92695Y33522D01*
D02*
G37*
G36*
X63127Y35824D02*
X61359Y35824D01*
X61185Y35817D01*
X61026D01*
X60894Y35810D01*
X60679D01*
X60596Y35803D01*
X60527D01*
X60471Y35796D01*
X60430D01*
X60395Y35790D01*
X60360D01*
X60187Y35755D01*
X60041Y35713D01*
X59917Y35658D01*
X59812Y35595D01*
X59736Y35540D01*
X59681Y35491D01*
X59646Y35464D01*
X59632Y35450D01*
X59549Y35339D01*
X59487Y35221D01*
X59445Y35103D01*
X59410Y34985D01*
X59396Y34881D01*
X59390Y34805D01*
X59383Y34770D01*
Y34750D01*
Y34736D01*
Y34729D01*
X59396Y34562D01*
X59431Y34417D01*
X59473Y34285D01*
X59528Y34181D01*
X59584Y34098D01*
X59625Y34028D01*
X59660Y33994D01*
X59674Y33980D01*
X59792Y33883D01*
X59917Y33806D01*
X60041Y33744D01*
X60166Y33702D01*
X60277Y33668D01*
X60326Y33654D01*
X60367Y33647D01*
X60402Y33640D01*
X60430Y33633D01*
X60450D01*
X60513Y33626D01*
X60589D01*
X60686Y33619D01*
X60790D01*
X60901Y33612D01*
X61255D01*
X61373Y33605D01*
X63127Y33605D01*
Y35824D01*
D02*
G37*
G36*
Y32011D02*
X61324Y32011D01*
X61102Y32004D01*
X60908Y31997D01*
X60735Y31990D01*
X60575Y31976D01*
X60437Y31969D01*
X60312Y31955D01*
X60201Y31941D01*
X60111Y31927D01*
X60034Y31913D01*
X59972Y31906D01*
X59923Y31893D01*
X59882Y31886D01*
X59861Y31879D01*
X59847Y31872D01*
X59840D01*
X59701Y31816D01*
X59577Y31747D01*
X59473Y31671D01*
X59390Y31601D01*
X59320Y31532D01*
X59278Y31477D01*
X59244Y31442D01*
X59237Y31435D01*
Y31428D01*
X59168Y31310D01*
X59112Y31185D01*
X59078Y31067D01*
X59050Y30949D01*
X59036Y30852D01*
X59022Y30769D01*
Y30742D01*
Y30721D01*
Y30707D01*
Y30700D01*
X59036Y30520D01*
X59064Y30353D01*
X59112Y30215D01*
X59161Y30097D01*
X59209Y30006D01*
X59258Y29937D01*
X59285Y29896D01*
X59299Y29889D01*
Y29882D01*
X59410Y29778D01*
X59521Y29694D01*
X59639Y29625D01*
X59750Y29576D01*
X59847Y29542D01*
X59930Y29514D01*
X59958Y29507D01*
X59979D01*
X59993Y29500D01*
X60000D01*
X60062Y29493D01*
X60138Y29479D01*
X60229Y29472D01*
X60326Y29466D01*
X60437D01*
X60547Y29459D01*
X60769Y29452D01*
X60880D01*
X60984Y29445D01*
X63127Y29445D01*
Y32011D01*
D02*
G37*
%LPD*%
M02*
