G04*
G04 #@! TF.GenerationSoftware,Altium Limited,Altium Designer,25.2.1 (25)*
G04*
G04 Layer_Physical_Order=1*
G04 Layer_Color=255*
%FSLAX44Y44*%
%MOMM*%
G71*
G04*
G04 #@! TF.SameCoordinates,9FA7296E-CC3D-4323-95AD-B8A560F7C429*
G04*
G04*
G04 #@! TF.FilePolarity,Positive*
G04*
G01*
G75*
%ADD11R,0.6500X0.3200*%
%ADD12R,0.4750X0.2200*%
%ADD13R,1.0000X0.6000*%
%ADD14R,1.0000X0.3000*%
%ADD15R,0.4000X0.7000*%
%ADD26C,0.7874*%
%ADD27C,1.5000*%
%ADD28C,0.1000*%
%ADD29C,0.4000*%
%ADD30C,0.2000*%
%ADD31C,0.9906*%
%ADD32O,2.2000X1.0000*%
%ADD33O,1.8000X1.0000*%
%ADD34C,0.4000*%
G36*
X148216Y45000D02*
X121928D01*
X121802Y45219D01*
X120219Y46802D01*
X118281Y47921D01*
X116119Y48500D01*
X113881D01*
X111719Y47921D01*
X109781Y46802D01*
X108198Y45219D01*
X108072Y45000D01*
X81928D01*
X81802Y45219D01*
X80219Y46802D01*
X78281Y47921D01*
X76639Y48361D01*
X70000Y55000D01*
Y58000D01*
X75000D01*
Y60104D01*
X75462Y60296D01*
X75801Y59957D01*
X76903Y59500D01*
X78097D01*
X79199Y59957D01*
X80043Y60801D01*
X80500Y61903D01*
Y63097D01*
X80298Y63584D01*
X80576Y64000D01*
X91000D01*
Y64941D01*
X95000D01*
X95295Y65000D01*
X95597D01*
X95875Y65115D01*
X96171Y65174D01*
X96421Y65341D01*
X96699Y65457D01*
X96912Y65670D01*
X97163Y65837D01*
X97330Y66088D01*
X97543Y66301D01*
X97659Y66579D01*
X97826Y66829D01*
X97885Y67125D01*
X98000Y67403D01*
Y67705D01*
X98059Y68000D01*
X98000Y68295D01*
Y68597D01*
X97885Y68875D01*
X97826Y69170D01*
X97659Y69421D01*
X97543Y69699D01*
X97330Y69912D01*
X97163Y70163D01*
X96912Y70330D01*
X96699Y70543D01*
X96421Y70658D01*
X96171Y70826D01*
X95875Y70885D01*
X95597Y71000D01*
X95295D01*
X95000Y71059D01*
X91000D01*
Y72000D01*
X79000D01*
Y65576D01*
X78584Y65298D01*
X78097Y65500D01*
X76903D01*
X75801Y65043D01*
X75462Y64704D01*
X75000Y64896D01*
Y67000D01*
X70000D01*
Y67704D01*
X72796Y70500D01*
X75000D01*
Y72704D01*
X77172Y74876D01*
X79000D01*
Y72500D01*
X91000D01*
Y73441D01*
X95000D01*
X95295Y73500D01*
X95597D01*
X95875Y73615D01*
X96171Y73674D01*
X96421Y73841D01*
X96699Y73957D01*
X96912Y74170D01*
X97163Y74337D01*
X97330Y74588D01*
X97543Y74801D01*
X97659Y75079D01*
X97826Y75329D01*
X97885Y75625D01*
X98000Y75903D01*
Y76205D01*
X98059Y76500D01*
X98000Y76796D01*
Y77097D01*
X97885Y77375D01*
X97826Y77670D01*
X97659Y77921D01*
X97543Y78199D01*
X97330Y78412D01*
X97163Y78663D01*
X96912Y78830D01*
X96699Y79043D01*
X96421Y79159D01*
X96171Y79326D01*
X95875Y79385D01*
X95597Y79500D01*
X95295D01*
X95000Y79559D01*
X91000D01*
Y85876D01*
X94925D01*
X94957Y85801D01*
X95801Y84957D01*
X96903Y84500D01*
X98097D01*
X99199Y84957D01*
X100043Y85801D01*
X100500Y86903D01*
Y88097D01*
X100043Y89199D01*
X99199Y90043D01*
X98097Y90500D01*
X96903D01*
X95801Y90043D01*
X94957Y89199D01*
X94925Y89124D01*
X93495D01*
X93395Y89624D01*
X94199Y89957D01*
X95043Y90801D01*
X95500Y91903D01*
Y93097D01*
X95043Y94199D01*
X94199Y95043D01*
X93097Y95500D01*
X92898D01*
X92798Y96000D01*
X93648Y96352D01*
X96148Y98852D01*
X96624Y100000D01*
Y105000D01*
X96148Y106148D01*
X93648Y108648D01*
X92500Y109124D01*
X91000D01*
Y119500D01*
X91000Y120000D01*
X91000Y120588D01*
X91354Y120941D01*
X95000D01*
X95295Y121000D01*
X95597D01*
X95875Y121115D01*
X96171Y121174D01*
X96421Y121341D01*
X96699Y121457D01*
X96912Y121670D01*
X97163Y121837D01*
X97330Y122088D01*
X97543Y122301D01*
X97659Y122579D01*
X97826Y122829D01*
X97885Y123125D01*
X98000Y123403D01*
Y123705D01*
X98059Y124000D01*
X98000Y124296D01*
Y124597D01*
X97885Y124875D01*
X97826Y125170D01*
X97659Y125421D01*
X97543Y125699D01*
X97330Y125912D01*
X97163Y126163D01*
X96912Y126330D01*
X96699Y126543D01*
X96421Y126658D01*
X96171Y126826D01*
X95875Y126885D01*
X95597Y127000D01*
X95295D01*
X95000Y127059D01*
X91354D01*
X91000Y127412D01*
X91000Y128000D01*
X91000Y128588D01*
X91354Y128941D01*
X95000D01*
X95295Y129000D01*
X95597D01*
X95875Y129115D01*
X96171Y129174D01*
X96421Y129341D01*
X96699Y129457D01*
X96912Y129670D01*
X97163Y129837D01*
X97330Y130088D01*
X97543Y130301D01*
X97659Y130579D01*
X97826Y130829D01*
X97885Y131125D01*
X98000Y131403D01*
Y131705D01*
X98059Y132000D01*
X98000Y132296D01*
Y132597D01*
X97885Y132875D01*
X97826Y133170D01*
X97659Y133421D01*
X97543Y133699D01*
X97330Y133912D01*
X97163Y134163D01*
X96912Y134330D01*
X96699Y134543D01*
X96421Y134659D01*
X96171Y134826D01*
X95875Y134885D01*
X95597Y135000D01*
X95295D01*
X95000Y135059D01*
X91000D01*
Y136000D01*
X79000D01*
Y128500D01*
X79000Y128000D01*
X79000Y127500D01*
Y120500D01*
X79000Y120000D01*
X79000Y119477D01*
X78646Y119124D01*
X77000D01*
X75852Y118648D01*
X74204Y117000D01*
X70000D01*
Y120500D01*
X70730D01*
Y125000D01*
Y129500D01*
X70000D01*
Y133000D01*
X70730D01*
Y137500D01*
Y142000D01*
X70000D01*
Y145000D01*
X80000Y155000D01*
Y155000D01*
X108072D01*
X108198Y154781D01*
X109781Y153198D01*
X111719Y152079D01*
X113881Y151500D01*
X116119D01*
X118281Y152079D01*
X120219Y153198D01*
X121802Y154781D01*
X121928Y155000D01*
X148216D01*
Y45000D01*
D02*
G37*
%LPC*%
G36*
X94000Y149318D02*
X91270D01*
Y144470D01*
X99865D01*
X99652Y145541D01*
X98326Y147526D01*
X96341Y148852D01*
X94000Y149318D01*
D02*
G37*
G36*
X136000D02*
X131270D01*
Y144470D01*
X141865D01*
X141652Y145541D01*
X140326Y147526D01*
X138341Y148852D01*
X136000Y149318D01*
D02*
G37*
G36*
X88730D02*
X86000D01*
X83659Y148852D01*
X81674Y147526D01*
X80348Y145541D01*
X80135Y144470D01*
X88730D01*
Y149318D01*
D02*
G37*
G36*
X128730D02*
X124000D01*
X121659Y148852D01*
X119674Y147526D01*
X118348Y145541D01*
X118135Y144470D01*
X128730D01*
Y149318D01*
D02*
G37*
G36*
X75000Y142000D02*
X73270D01*
Y138770D01*
X75000D01*
Y142000D01*
D02*
G37*
G36*
X141865Y141930D02*
X131270D01*
Y137082D01*
X136000D01*
X138341Y137548D01*
X140326Y138874D01*
X141652Y140859D01*
X141865Y141930D01*
D02*
G37*
G36*
X128730D02*
X118135D01*
X118348Y140859D01*
X119674Y138874D01*
X121659Y137548D01*
X124000Y137082D01*
X128730D01*
Y141930D01*
D02*
G37*
G36*
X99865D02*
X91270D01*
Y137082D01*
X94000D01*
X96341Y137548D01*
X98326Y138874D01*
X99652Y140859D01*
X99865Y141930D01*
D02*
G37*
G36*
X88730D02*
X80135D01*
X80348Y140859D01*
X81674Y138874D01*
X83659Y137548D01*
X86000Y137082D01*
X88730D01*
Y141930D01*
D02*
G37*
G36*
X75000Y136230D02*
X73270D01*
Y133000D01*
X75000D01*
Y136230D01*
D02*
G37*
G36*
Y129500D02*
X73270D01*
Y126270D01*
X75000D01*
Y129500D01*
D02*
G37*
G36*
Y123730D02*
X73270D01*
Y120500D01*
X75000D01*
Y123730D01*
D02*
G37*
G36*
X136000Y62917D02*
X131270D01*
Y58070D01*
X141865D01*
X141652Y59141D01*
X140326Y61126D01*
X138341Y62452D01*
X136000Y62917D01*
D02*
G37*
G36*
X94000D02*
X91270D01*
Y58070D01*
X99865D01*
X99652Y59141D01*
X98326Y61126D01*
X96341Y62452D01*
X94000Y62917D01*
D02*
G37*
G36*
X88730D02*
X86000D01*
X83659Y62452D01*
X81674Y61126D01*
X80348Y59141D01*
X80135Y58070D01*
X88730D01*
Y62917D01*
D02*
G37*
G36*
X128730D02*
X124000D01*
X121659Y62452D01*
X119674Y61126D01*
X118348Y59141D01*
X118135Y58070D01*
X128730D01*
Y62917D01*
D02*
G37*
G36*
X141865Y55530D02*
X131270D01*
Y50682D01*
X136000D01*
X138341Y51148D01*
X140326Y52474D01*
X141652Y54459D01*
X141865Y55530D01*
D02*
G37*
G36*
X128730D02*
X118135D01*
X118348Y54459D01*
X119674Y52474D01*
X121659Y51148D01*
X124000Y50682D01*
X128730D01*
Y55530D01*
D02*
G37*
G36*
X99865D02*
X91270D01*
Y50682D01*
X94000D01*
X96341Y51148D01*
X98326Y52474D01*
X99652Y54459D01*
X99865Y55530D01*
D02*
G37*
G36*
X88730D02*
X80135D01*
X80348Y54459D01*
X81674Y52474D01*
X83659Y51148D01*
X86000Y50682D01*
X88730D01*
Y55530D01*
D02*
G37*
%LPD*%
D11*
X40850Y66500D02*
D03*
Y133500D02*
D03*
X19150D02*
D03*
Y66500D02*
D03*
D12*
X17880Y124000D02*
D03*
Y120000D02*
D03*
Y116000D02*
D03*
Y112000D02*
D03*
Y108000D02*
D03*
Y104000D02*
D03*
Y100000D02*
D03*
Y96000D02*
D03*
Y92000D02*
D03*
Y88000D02*
D03*
Y84000D02*
D03*
Y80000D02*
D03*
Y76000D02*
D03*
X42125Y124000D02*
D03*
Y120000D02*
D03*
Y116000D02*
D03*
Y112000D02*
D03*
Y108000D02*
D03*
Y104000D02*
D03*
Y100000D02*
D03*
Y96000D02*
D03*
Y92000D02*
D03*
Y88000D02*
D03*
Y84000D02*
D03*
Y80000D02*
D03*
Y76000D02*
D03*
D13*
X85000Y68000D02*
D03*
Y76500D02*
D03*
Y132000D02*
D03*
Y124000D02*
D03*
D14*
Y82500D02*
D03*
Y87500D02*
D03*
Y92500D02*
D03*
Y117500D02*
D03*
Y112500D02*
D03*
Y107500D02*
D03*
Y102500D02*
D03*
Y97500D02*
D03*
D15*
X72000Y100000D02*
D03*
X63000D02*
D03*
X72000Y87500D02*
D03*
X63000D02*
D03*
X72000Y75000D02*
D03*
X63000D02*
D03*
X72000Y137500D02*
D03*
X63000D02*
D03*
Y112500D02*
D03*
X72000D02*
D03*
X63000Y62500D02*
D03*
X72000D02*
D03*
Y125000D02*
D03*
X63000D02*
D03*
D26*
X31900Y163650D02*
D03*
Y176350D02*
D03*
X44600Y163650D02*
D03*
Y176350D02*
D03*
X57300Y163650D02*
D03*
Y176350D02*
D03*
D27*
X115000Y160000D02*
D03*
X55000Y15000D02*
D03*
X115000Y40000D02*
D03*
X95000Y185000D02*
D03*
X135000D02*
D03*
X135000Y15000D02*
D03*
X75000Y40000D02*
D03*
X35000D02*
D03*
X95000Y15000D02*
D03*
X15000D02*
D03*
D28*
X50000Y76000D02*
X57250Y68750D01*
X57500Y125000D02*
X63000D01*
X85000Y117500D02*
X85000Y117500D01*
X57500Y62500D02*
X63000D01*
X57500Y100000D02*
X63000D01*
X57500Y137500D02*
X63000D01*
X57500Y112500D02*
X63000D01*
X76500Y76500D02*
X85000D01*
X55000Y15000D02*
Y15000D01*
X47500Y22500D02*
X55000Y15000D01*
X67500Y47500D02*
X75000Y40000D01*
X107500Y32500D02*
X115000Y40000D01*
X107500Y32500D02*
X107500D01*
X72000Y62500D02*
X77500D01*
X77500Y62500D01*
X85000Y87500D02*
X97500D01*
X97500Y87500D01*
X15000Y15000D02*
Y37500D01*
X37000Y92000D02*
X42125D01*
X35000Y40000D02*
Y85000D01*
X38000Y88000D01*
X42125D01*
X77000Y117500D02*
X85000D01*
X72000Y112500D02*
X77000Y117500D01*
X42125Y76000D02*
X50000D01*
X42125Y100000D02*
X47000D01*
X95000Y15000D02*
Y15000D01*
X87500Y7500D02*
X95000Y15000D01*
X38250Y170000D02*
X48000D01*
X31900Y176350D02*
X38250Y170000D01*
X48000D02*
X51250Y166750D01*
X80000Y165000D02*
Y175000D01*
X46500Y124000D02*
X50000Y127500D01*
X42125Y124000D02*
X46500D01*
X72500Y182500D02*
X80000Y175000D01*
X63450Y182500D02*
X72500D01*
X57300Y176350D02*
X63450Y182500D01*
X51250Y158750D02*
Y166750D01*
X27500Y159250D02*
X31900Y163650D01*
X30000Y149050D02*
X44600Y163650D01*
X32500Y140000D02*
X51250Y158750D01*
X27500Y120000D02*
Y159250D01*
X35500Y112000D02*
X42125D01*
X27500Y120000D02*
X35500Y112000D01*
X30000Y122500D02*
Y149050D01*
X36500Y116000D02*
X42125D01*
X30000Y122500D02*
X36500Y116000D01*
X37500Y120000D02*
X42125D01*
X32500Y125000D02*
X37500Y120000D01*
X32500Y125000D02*
Y140000D01*
X42125Y108000D02*
X47000D01*
X42125Y104000D02*
X52500D01*
X42125Y96000D02*
X52500D01*
X15000Y37500D02*
X32500Y55000D01*
Y87500D01*
X37000Y92000D01*
X57300Y163650D02*
X62975Y157975D01*
X50000Y127500D02*
Y142500D01*
X57500Y150000D02*
X65000D01*
X50000Y142500D02*
X57500Y150000D01*
X65000D02*
X80000Y165000D01*
X39000Y181950D02*
X44600Y176350D01*
X57500Y87500D02*
X63000D01*
X68750Y68750D02*
X76500Y76500D01*
X57250Y68750D02*
X68750D01*
X57500Y75000D02*
X63000D01*
X72750Y85250D02*
X77500Y90000D01*
X68750Y81250D02*
X72750Y85250D01*
X77500Y90000D02*
Y96250D01*
X95000Y100000D02*
Y105000D01*
X92500Y97500D02*
X95000Y100000D01*
X85000Y97500D02*
X92500D01*
X92500Y107500D02*
X95000Y105000D01*
X85000Y107500D02*
X92500D01*
X77500Y96250D02*
X78750Y97500D01*
X85000D01*
X57750Y93750D02*
X68750D01*
X54389Y90389D02*
X57750Y93750D01*
X85000Y92500D02*
X92500D01*
X92500Y92500D01*
X77500Y102500D02*
X85000D01*
X68750Y93750D02*
X72750Y97750D01*
X77500Y102500D01*
X42125Y84000D02*
X48000D01*
X54389Y90389D01*
X51250Y81250D02*
X68750D01*
X50000Y80000D02*
X51250Y81250D01*
X42125Y80000D02*
X50000D01*
D29*
X85000Y68000D02*
X95000D01*
X85000Y124000D02*
X95000D01*
X85000Y76500D02*
X95000D01*
X85000Y132000D02*
X95000D01*
X87500Y192500D02*
X95000Y185000D01*
X107500Y167500D02*
X115000Y160000D01*
X107500Y167500D02*
X107500D01*
X127500Y177500D02*
X135000Y185000D01*
X127500Y22500D02*
X135000Y15000D01*
X127500Y22500D02*
Y22500D01*
D30*
X12500Y124000D02*
X17880D01*
X7500Y120000D02*
X17880D01*
X12500Y116000D02*
X17880D01*
X7500Y112000D02*
X17880D01*
X12500Y108000D02*
X17880D01*
X7500Y104000D02*
X17880D01*
X12500Y100000D02*
X17880D01*
Y92000D02*
X22500D01*
X17880Y96000D02*
X27500D01*
X17880Y88000D02*
X27500D01*
X12500Y84000D02*
X17880D01*
X7500Y80000D02*
X17880D01*
X12500Y76000D02*
X17880D01*
D31*
X19200Y180160D02*
D03*
Y159840D02*
D03*
X70000Y170000D02*
D03*
D32*
X130000Y56800D02*
D03*
Y143200D02*
D03*
D33*
X90000Y56800D02*
D03*
Y143200D02*
D03*
D34*
X95000Y132000D02*
D03*
Y124000D02*
D03*
Y76500D02*
D03*
Y68000D02*
D03*
X57500Y62500D02*
D03*
Y137500D02*
D03*
Y100000D02*
D03*
Y125000D02*
D03*
Y112500D02*
D03*
X47500Y22500D02*
D03*
X67500Y47500D02*
D03*
X107500Y32500D02*
D03*
X87500Y192500D02*
D03*
X107500Y167500D02*
D03*
X127500Y177500D02*
D03*
Y22500D02*
D03*
X77500Y62500D02*
D03*
X97500Y87500D02*
D03*
X47000Y100000D02*
D03*
X87500Y7500D02*
D03*
X47000Y108000D02*
D03*
X52500Y104000D02*
D03*
Y96000D02*
D03*
X12500Y124000D02*
D03*
X7500Y120000D02*
D03*
X12500Y116000D02*
D03*
X7500Y112000D02*
D03*
X12500Y108000D02*
D03*
X7500Y104000D02*
D03*
X12500Y100000D02*
D03*
X27500Y96000D02*
D03*
X22500Y92000D02*
D03*
X27500Y88000D02*
D03*
X12500Y84000D02*
D03*
X7500Y80000D02*
D03*
X12500Y76000D02*
D03*
X62975Y157975D02*
D03*
X39000Y181950D02*
D03*
X57500Y87500D02*
D03*
Y75000D02*
D03*
X92500Y92500D02*
D03*
X77500Y102500D02*
D03*
M02*
