G04*
G04 #@! TF.GenerationSoftware,Altium Limited,Altium Designer,25.8.1 (18)*
G04*
G04 Layer_Color=8388736*
%FSLAX44Y44*%
%MOMM*%
G71*
G04*
G04 #@! TF.SameCoordinates,1E3846C3-62AB-4AEE-BE3D-F3B3455204D7*
G04*
G04*
G04 #@! TF.FilePolarity,Negative*
G04*
G01*
G75*
%ADD16C,0.9906*%
%ADD17R,0.8532X0.5232*%
%ADD18R,0.6782X0.4232*%
%ADD19R,1.2032X0.8032*%
%ADD20R,1.2032X0.5032*%
%ADD21C,1.7032*%
%ADD22R,0.6032X0.9032*%
%ADD23C,1.1938*%
%ADD24O,2.4032X1.2032*%
%ADD25O,2.0032X1.2032*%
D16*
X31900Y163650D02*
D03*
Y176350D02*
D03*
X44600Y163650D02*
D03*
Y176350D02*
D03*
X57300Y163650D02*
D03*
Y176350D02*
D03*
D17*
X40850Y66500D02*
D03*
Y133500D02*
D03*
X19150D02*
D03*
Y66500D02*
D03*
D18*
X17880Y124000D02*
D03*
Y120000D02*
D03*
Y116000D02*
D03*
Y112000D02*
D03*
Y108000D02*
D03*
Y104000D02*
D03*
Y100000D02*
D03*
Y96000D02*
D03*
Y92000D02*
D03*
Y88000D02*
D03*
Y84000D02*
D03*
Y80000D02*
D03*
Y76000D02*
D03*
X42125Y124000D02*
D03*
Y120000D02*
D03*
Y116000D02*
D03*
Y112000D02*
D03*
Y108000D02*
D03*
Y104000D02*
D03*
Y100000D02*
D03*
Y96000D02*
D03*
Y92000D02*
D03*
Y88000D02*
D03*
Y84000D02*
D03*
Y80000D02*
D03*
Y76000D02*
D03*
D19*
X85000Y68000D02*
D03*
Y76500D02*
D03*
Y132000D02*
D03*
Y124000D02*
D03*
D20*
Y82500D02*
D03*
Y87500D02*
D03*
Y92500D02*
D03*
Y117500D02*
D03*
Y112500D02*
D03*
Y107500D02*
D03*
Y102500D02*
D03*
Y97500D02*
D03*
D21*
X115000Y160000D02*
D03*
X55000Y15000D02*
D03*
X115000Y40000D02*
D03*
X95000Y185000D02*
D03*
X135000D02*
D03*
X135000Y15000D02*
D03*
X75000Y40000D02*
D03*
X35000D02*
D03*
X95000Y15000D02*
D03*
X15000D02*
D03*
D22*
X72000Y100000D02*
D03*
X63000D02*
D03*
X72000Y87500D02*
D03*
X63000D02*
D03*
X72000Y75000D02*
D03*
X63000D02*
D03*
X72000Y137500D02*
D03*
X63000D02*
D03*
Y112500D02*
D03*
X72000D02*
D03*
X63000Y62500D02*
D03*
X72000D02*
D03*
Y125000D02*
D03*
X63000D02*
D03*
D23*
X19200Y180160D02*
D03*
Y159840D02*
D03*
X70000Y170000D02*
D03*
D24*
X130000Y56800D02*
D03*
Y143200D02*
D03*
D25*
X90000Y56800D02*
D03*
Y143200D02*
D03*
M02*
