M48
;Layer_Color=9474304
;FILE_FORMAT=2:5
INCH,LZ
;TYPE=PLATED
T01F00S00C0.00787
;TYPE=NON_PLATED
T03F00S00C0.03900
%
T01
X0018701Y0008858
X0026575Y0018701
X0022638Y0024606
Y0029528
Y0034449
Y003937
X0020669Y0040945
Y0037795
X0018504Y003937
Y004252
X0022638Y0044291
Y0049213
Y0054134
X0024793Y0062195
X0015354Y0071634
X0034449Y0075787
X0042323Y0065945
X0050197Y0069882
X0037402Y0051968
Y0048819
X0036417Y0036417
X0038386Y0034449
X0037402Y0030118
Y0026772
X0030512Y0024606
Y0040354
X0010827Y0037795
Y0034646
X0008858Y003622
X0004921Y0033071
Y0029921
X0002953Y0031496
Y0040945
Y0044094
Y0047244
X0004921Y0048819
Y0045669
Y004252
Y003937
X0042323Y0012795
X0050197Y0008858
X0034449Y0002953
T03
X0007559Y0062929
Y0070929
X0027559Y0066929
M30
